<svg width="31" height="31" viewBox="0 0 31 31" fill="none" xmlns="http://www.w3.org/2000/svg">
<path d="M29.4375 5.4375L19.5938 15.2812L29.4375 25.2188C30.6562 26.3438 30.6562 28.3125 29.4375 29.4375C28.3125 30.6562 26.3438 30.6562 25.2188 29.4375L15.375 19.5938L5.4375 29.4375C4.3125 30.6562 2.34375 30.6562 1.21875 29.4375C0 28.3125 0 26.3438 1.21875 25.2188L11.0625 15.2812L1.21875 5.4375C0 4.3125 0 2.34375 1.21875 1.21875C2.34375 0 4.3125 0 5.4375 1.21875L15.375 11.0625L25.2188 1.21875C26.3438 0 28.3125 0 29.4375 1.21875C30.6562 2.34375 30.6562 4.3125 29.4375 5.4375Z" fill="black"/>
</svg>
