<svg width="21" height="21" viewBox="0 0 21 21" fill="none" xmlns="http://www.w3.org/2000/svg">
<path d="M11.5938 0.703125L14.1328 5.89844L19.7188 6.71875C20.1875 6.79688 20.5781 7.10938 20.7344 7.57812C20.8906 8.00781 20.7734 8.51562 20.4219 8.82812L16.3594 12.8516L17.3359 18.5547C17.4141 19.0234 17.2188 19.4922 16.8281 19.7656C16.4375 20.0781 15.9297 20.0781 15.5 19.8828L10.5 17.1875L5.46094 19.8828C5.07031 20.0781 4.5625 20.0781 4.17188 19.7656C3.78125 19.4922 3.58594 19.0234 3.66406 18.5547L4.60156 12.8516L0.539062 8.82812C0.226562 8.51562 0.109375 8.00781 0.226562 7.57812C0.382812 7.10938 0.773438 6.79688 1.24219 6.71875L6.86719 5.89844L9.36719 0.703125C9.5625 0.273438 9.99219 0 10.5 0C10.9688 0 11.3984 0.273438 11.5938 0.703125Z" fill="white"/>
</svg>
